<svg xmlns="http://www.w3.org/2000/svg" data-name="Layer 1" viewBox="0 0 95 118.75" x="0px" y="0px"><path d="M58.347,40.916a17.06,17.06,0,0,1,.874,1.813,17.342,17.342,0,0,1,.662,1.9l4.245,1.381v6.939l-4.243,1.379a17.228,17.228,0,0,1-.662,1.9,17.669,17.669,0,0,1-.874,1.813l2.027,3.979-4.907,4.907L51.49,64.9a18.323,18.323,0,0,1-1.814.874,17.491,17.491,0,0,1-1.9.66L46.4,70.677h-6.94L38.08,66.434A17.709,17.709,0,0,1,34.366,64.9l-3.979,2.027L25.48,62.018l2.029-3.979a17.573,17.573,0,0,1-1.536-3.711l-4.245-1.381V46.008l4.243-1.379a18.093,18.093,0,0,1,.661-1.9,17.676,17.676,0,0,1,.875-1.813L25.48,36.939l4.907-4.909,3.979,2.027a18.062,18.062,0,0,1,1.812-.874,17.542,17.542,0,0,1,1.9-.66l1.378-4.245H46.4l1.378,4.245a17.228,17.228,0,0,1,1.9.662,17.456,17.456,0,0,1,1.814.872l3.979-2.027,4.907,4.909-2.029,3.977ZM70.9,49.865a1.232,1.232,0,1,1,1.742-1.742l1.328,1.33,3.14-2.56a1.229,1.229,0,0,1,1.55,1.908L74.736,52a1.23,1.23,0,0,1-1.721-.021L70.9,49.865Zm-63.665,0a1.232,1.232,0,0,1,1.744-1.742l1.328,1.33,3.138-2.56A1.23,1.23,0,0,1,15,48.8L11.073,52a1.23,1.23,0,0,1-1.721-.021L7.237,49.865ZM39,17.994a1.232,1.232,0,1,1,1.742-1.744l1.33,1.33,3.138-2.558a1.228,1.228,0,1,1,1.55,1.906l-3.925,3.2a1.23,1.23,0,0,1-1.721-.019L39,17.994ZM18.908,66.65l-.127,1.744a30.515,30.515,0,0,1-5.4-10.653,8.557,8.557,0,0,0,0-16.527A30.719,30.719,0,0,1,34.694,19.925a8.562,8.562,0,1,0-.318-2.464A33.2,33.2,0,0,0,10.91,40.929a8.553,8.553,0,0,0,0,17.1A33.015,33.015,0,0,0,16.916,70l-1.742-.127A1.231,1.231,0,1,0,15,72.325l4.7.344a1.227,1.227,0,0,0,1.313-1.141l.345-4.705a1.231,1.231,0,0,0-2.455-.173Zm45.46-46.163-4.655.768a1.23,1.23,0,0,0-1.016,1.41l.77,4.654a1.229,1.229,0,1,0,2.426-.394l-.3-1.785a30.777,30.777,0,0,1,6.312,6.539,30.459,30.459,0,0,1,4.572,9.572,8.556,8.556,0,0,0,0,16.453A30.676,30.676,0,0,1,42.933,80.146H5.027a1.232,1.232,0,1,0,0,2.464H42.919l.008,0A33.151,33.151,0,0,0,74.944,58.031a8.554,8.554,0,0,0,0-17.106,32.955,32.955,0,0,0-5.03-10.672,33.344,33.344,0,0,0-6.822-7.065l1.671-.275a1.229,1.229,0,1,0-.4-2.426ZM86.947,78.914a1.232,1.232,0,0,1,1.744-1.742L92.018,80.5a1.02,1.02,0,0,1,.111.127h0l.018.023,0,.007.012.016.008.009.007.014.01.013.008.014.007.009.012.02,0,0,.011.021,0,.006.012.021,0,.006.011.025h0a1.235,1.235,0,0,1,0,1.091h0l-.011.025,0,.006-.012.019,0,.006L92.218,82l0,0-.012.019-.007.01-.008.013-.01.014-.007.013-.008.01-.012.015,0,.008-.018.023h0a1.1,1.1,0,0,1-.111.127l-3.327,3.326a1.232,1.232,0,1,1-1.744-1.742l1.234-1.234H61.658a1.232,1.232,0,0,1,0-2.464H88.181l-1.234-1.232ZM79.135,45.172a6.09,6.09,0,1,0,1.783,4.306,6.07,6.07,0,0,0-1.783-4.306Zm-63.663,0a6.09,6.09,0,1,0,1.783,4.306,6.071,6.071,0,0,0-1.783-4.306ZM47.233,13.3a6.092,6.092,0,1,0,1.783,4.306A6.069,6.069,0,0,0,47.233,13.3ZM42.927,38.577a10.9,10.9,0,1,0,7.71,3.192,10.871,10.871,0,0,0-7.71-3.192ZM48.9,43.513a8.439,8.439,0,1,0,2.47,5.965,8.409,8.409,0,0,0-2.47-5.965Zm8.054.15a14.863,14.863,0,0,0-1.051-2.07L55.54,41l1.827-3.588-2.378-2.379L51.4,36.866l-.589-.359a15.036,15.036,0,0,0-4.287-1.774l-.67-.164L44.61,30.734H41.246L40,34.569l-.67.162a15.008,15.008,0,0,0-4.289,1.776l-.589.359-3.586-1.829-2.378,2.379L30.316,41l-.358.589a14.877,14.877,0,0,0-1.053,2.07,15.194,15.194,0,0,0-.724,2.218l-.161.669L24.183,47.8v3.363l3.838,1.247.162.668a15.116,15.116,0,0,0,.724,2.218,14.688,14.688,0,0,0,1.051,2.069l.358.59-1.827,3.59,2.378,2.377,3.586-1.829.589.36a15.121,15.121,0,0,0,4.289,1.775l.67.162,1.245,3.837H44.61l1.245-3.837.67-.164a15.227,15.227,0,0,0,2.218-.722,14.811,14.811,0,0,0,2.069-1.053l.589-.358,3.588,1.829,2.378-2.377L55.54,57.952l.358-.589a15.049,15.049,0,0,0,1.777-4.289l.162-.67,3.836-1.245V47.8L57.837,46.55l-.164-.669A14.881,14.881,0,0,0,56.949,43.663Z" style="" fill-rule="evenodd"/></svg>