<svg xmlns="http://www.w3.org/2000/svg" version="1.1" viewBox="-5.0 -10.0 110.0 135.0">
 <path d="m92.828 7.0195h-85.656c-3.3359 0-6.0469 2.7148-6.0469 6.0469v58.195c0 3.3359 2.7148 6.0469 6.0469 6.0469h33.031v4.0039c0 3.6172-1.9609 6.9961-5.1172 8.8164-0.59766 0.34766-0.89063 1.0508-0.71484 1.7188 0.17969 0.66797 0.78516 1.1328 1.4766 1.1328h28.309c0.69141 0 1.2969-0.46484 1.4766-1.1328 0.17969-0.66797-0.11328-1.375-0.71484-1.7188-3.1562-1.8203-5.1172-5.1953-5.1172-8.8164v-4.0039h33.023c3.3359 0 6.0469-2.7148 6.0469-6.0469l0.003906-58.195c0-3.3359-2.7109-6.0469-6.0469-6.0469zm-85.656 3.0547h85.656c1.6484 0 2.9883 1.3398 2.9883 2.9883v52.918l-91.633 0.003906v-52.918c0-1.6484 1.3398-2.9922 2.9883-2.9922zm52.781 79.852h-19.898c2.0352-2.3711 3.207-5.418 3.207-8.6133v-4.0039h13.484v4.0039c0 3.1953 1.1719 6.2422 3.207 8.6133zm32.875-15.672h-85.656c-1.6484 0-2.9883-1.3398-2.9883-2.9883v-2.2227h91.637v2.2227c-0.003906 1.6445-1.3438 2.9883-2.9922 2.9883zm-5.7227-30.855-2.0273-0.46094c-0.054687-0.14062-0.11328-0.27734-0.17188-0.41406l1.1094-1.7578c0.32031-0.50391 0.31641-1.1484-0.011719-1.6523-1.2383-1.8984-2.8281-3.4883-4.7266-4.7266-0.5-0.32422-1.1445-0.33203-1.6523-0.011719l-1.7578 1.1094c-0.13672-0.058594-0.27344-0.11719-0.41406-0.17188l-0.45312-2.0273c-0.13281-0.58594-0.58984-1.0391-1.1797-1.1602-2.1953-0.46094-4.5078-0.46094-6.6797 0-0.58594 0.12109-1.043 0.57422-1.1758 1.1562l-0.46094 2.0312c-0.14062 0.054688-0.27734 0.11328-0.41406 0.17188l-1.7617-1.1094c-0.50781-0.32031-1.1523-0.31641-1.6523 0.011719-1.9023 1.2422-3.4922 2.832-4.7266 4.7266-0.32422 0.5-0.33203 1.1445-0.011719 1.6523l1.1094 1.7578c-0.058594 0.13672-0.11719 0.27734-0.17188 0.41406l-2.0234 0.46094c-0.58203 0.13281-1.0352 0.58984-1.1602 1.1758-0.23047 1.0898-0.34766 2.2109-0.34766 3.3359 0 1.1289 0.11719 2.25 0.34766 3.3398 0.12109 0.58594 0.57422 1.043 1.1602 1.1758l2.0273 0.46094c0.054688 0.14062 0.11328 0.27734 0.17188 0.41406l-1.1094 1.7578c-0.32031 0.50781-0.31641 1.1523 0.011719 1.6523 1.2227 1.8672 2.8555 3.5039 4.7227 4.7227 0.5 0.32812 1.1484 0.33203 1.6523 0.011718l1.7617-1.1094c0.13672 0.058593 0.27344 0.11719 0.41406 0.17187l0.46094 2.0312c0.13281 0.58203 0.58984 1.0352 1.1758 1.1562 1.0898 0.23047 2.2148 0.34766 3.3398 0.34766 1.1211 0 2.2422-0.11719 3.3398-0.34766 0.58594-0.12109 1.0469-0.57812 1.1797-1.1602l0.45312-2.0273c0.13672-0.054687 0.27734-0.11328 0.41406-0.17187l1.7578 1.1094c0.50391 0.32031 1.1484 0.31641 1.6523-0.011718 1.8984-1.2383 3.4883-2.8281 4.7266-4.7266 0.32422-0.5 0.33203-1.1445 0.011719-1.6523l-1.1094-1.7578c0.058594-0.13672 0.11719-0.27734 0.17188-0.41406l2.0273-0.46094c0.58203-0.13281 1.0352-0.58984 1.1602-1.1758 0.23047-1.0898 0.34766-2.2148 0.34766-3.3398 0-1.1211-0.11719-2.2461-0.34766-3.3359-0.125-0.57812-0.57812-1.0391-1.1602-1.1719zm-1.6719 6.2734-1.8516 0.41797c-0.52734 0.11719-0.95312 0.50781-1.1172 1.0234-0.17578 0.54688-0.39453 1.0703-0.66406 1.6055-0.24609 0.48047-0.21875 1.0547 0.070313 1.5117l1.0156 1.6055c-0.71484 0.94141-1.5508 1.7734-2.4883 2.4883l-1.6055-1.0156c-0.45703-0.28906-1.0312-0.3125-1.5117-0.070313-0.53125 0.26953-1.0586 0.48828-1.6055 0.66406-0.51562 0.16406-0.90625 0.59375-1.0234 1.1211l-0.41406 1.8477c-1.168 0.15625-2.3594 0.15625-3.5156 0l-0.41797-1.8516c-0.11719-0.52734-0.50781-0.94922-1.0195-1.1172-0.55078-0.17969-1.0898-0.40234-1.6094-0.66406-0.48047-0.24609-1.0547-0.21875-1.5117 0.070313l-1.6055 1.0117c-0.93359-0.71484-1.7773-1.5586-2.4883-2.4883l1.0117-1.6055c0.28906-0.45703 0.3125-1.0312 0.070313-1.5117-0.26953-0.53125-0.48828-1.0586-0.66406-1.6055-0.16406-0.51562-0.58984-0.90234-1.1172-1.0234l-1.8516-0.41406c-0.078125-0.57812-0.11719-1.168-0.11719-1.7578 0-0.58594 0.039062-1.1758 0.11719-1.7539l1.8516-0.41797c0.52734-0.11719 0.95312-0.50781 1.1172-1.0234 0.17578-0.54688 0.39453-1.0703 0.66406-1.6055 0.24609-0.48047 0.21875-1.0547-0.070313-1.5117l-1.0156-1.6055c0.71484-0.9375 1.5469-1.7695 2.4883-2.4883l1.6055 1.0156c0.45703 0.28906 1.0273 0.3125 1.5117 0.070312 0.51953-0.26562 1.0586-0.48828 1.6094-0.66406 0.51172-0.16406 0.89844-0.58984 1.0195-1.1172l0.41797-1.8516c1.1562-0.15625 2.3477-0.15625 3.5156 0l0.41406 1.8477c0.11719 0.52734 0.50781 0.95312 1.0234 1.1211 0.54688 0.17578 1.0703 0.39453 1.6055 0.66406 0.48047 0.24609 1.0547 0.21875 1.5117-0.070312l1.6055-1.0156c0.94141 0.71484 1.7734 1.5508 2.4883 2.4883l-1.0156 1.6055c-0.28906 0.45703-0.3125 1.0312-0.070313 1.5117 0.26953 0.53125 0.48828 1.0586 0.66406 1.6055 0.16406 0.51562 0.58984 0.90234 1.1172 1.0234l1.8516 0.41797c0.078124 0.57812 0.11719 1.1641 0.11719 1.7539 0.003906 0.58594-0.035156 1.1758-0.11328 1.7578zm-12.953-10.129c-4.6172 0-8.375 3.7539-8.375 8.3672 0 4.6172 3.7578 8.375 8.375 8.375 4.6133 0 8.3672-3.7578 8.3672-8.375 0-4.6133-3.7539-8.3672-8.3672-8.3672zm0 13.684c-2.9336 0-5.3164-2.3867-5.3164-5.3164 0-2.9297 2.3867-5.3125 5.3164-5.3125 2.9297 0 5.3125 2.3828 5.3125 5.3125 0 2.9336-2.3828 5.3164-5.3125 5.3164zm-62.887-31.629c-0.027344-0.4375 0.13281-0.86719 0.44141-1.1797l5.3359-5.3789c0.59375-0.59766 1.5625-0.60156 2.1602-0.007812s0.60156 1.5625 0.007812 2.1602l-4.1172 4.1484 4.7305 3.6484c0.66797 0.51562 0.79297 1.4766 0.27734 2.1445-0.30078 0.39063-0.75391 0.59375-1.2109 0.59375-0.32422 0-0.65625-0.10547-0.93359-0.32031l-6.0977-4.707c-0.35156-0.26172-0.56641-0.66406-0.59375-1.1016zm17.426 5.543c-0.51562-0.66797-0.39062-1.6289 0.27734-2.1445l4.7305-3.6484-4.1211-4.1484c-0.59375-0.59766-0.59375-1.5664 0.007812-2.1602 0.59766-0.59375 1.5664-0.58984 2.1602 0.007813l5.3398 5.3789c0.30859 0.3125 0.46875 0.73828 0.44141 1.1797-0.027344 0.4375-0.24219 0.84375-0.59375 1.1094l-6.1055 4.707c-0.27734 0.21484-0.60547 0.31641-0.93359 0.31641-0.44922-0.003906-0.90234-0.21094-1.2031-0.59766zm-7.0938 1.5234 2.7852-15.547c0.14844-0.83203 0.94531-1.3828 1.7734-1.2344 0.83203 0.14844 1.3828 0.94141 1.2344 1.7734l-2.7852 15.547c-0.13281 0.73828-0.77734 1.2578-1.5039 1.2578-0.089844 0-0.17969-0.007813-0.27344-0.023438-0.82422-0.14844-1.3789-0.94531-1.2305-1.7734zm24.406-12.812c0-0.84375 0.68359-1.5273 1.5273-1.5273h43.309c0.84375 0 1.5273 0.68359 1.5273 1.5273s-0.68359 1.5273-1.5273 1.5273l-43.309 0.003906c-0.84375 0-1.5273-0.6875-1.5273-1.5312zm0 5.3086c0-0.84375 0.68359-1.5273 1.5273-1.5273h43.309c0.84375 0 1.5273 0.68359 1.5273 1.5273s-0.68359 1.5273-1.5273 1.5273l-43.309 0.003906c-0.84375 0-1.5273-0.68359-1.5273-1.5312zm0 5.3086c0-0.84375 0.68359-1.5273 1.5273-1.5273h12.859c0.84375 0 1.5273 0.68359 1.5273 1.5273s-0.68359 1.5273-1.5273 1.5273l-12.859 0.003906c-0.84375 0-1.5273-0.6875-1.5273-1.5312zm-29.441 8.1758c-0.84375 0-1.5273 0.68359-1.5273 1.5273v10.023c0 0.84375 0.68359 1.5273 1.5273 1.5273h10.023c0.84375 0 1.5273-0.68359 1.5273-1.5273v-10.023c0-0.84375-0.68359-1.5273-1.5273-1.5273zm8.4922 10.023h-6.9648v-6.9648h6.9648zm1.5273 6.8008h-10.02c-0.84375 0-1.5273 0.68359-1.5273 1.5273v10.023c0 0.84375 0.68359 1.5273 1.5273 1.5273h10.023c0.84375 0 1.5273-0.68359 1.5273-1.5273v-10.023c0-0.84375-0.68359-1.5273-1.5312-1.5273zm-1.5273 10.023h-6.9648v-6.9648h6.9648zm28.902-25.391c0 0.84375-0.68359 1.5273-1.5273 1.5273l-20.617 0.003906c-0.84375 0-1.5273-0.68359-1.5273-1.5273s0.68359-1.5273 1.5273-1.5273h20.617c0.84375-0.003906 1.5273 0.67969 1.5273 1.5234zm-23.676 6.0117c0-0.84375 0.68359-1.5273 1.5273-1.5273h12.859c0.84375 0 1.5273 0.68359 1.5273 1.5273s-0.68359 1.5273-1.5273 1.5273l-12.855 0.003906c-0.84375 0-1.5312-0.68359-1.5312-1.5312zm23.676 10.883c0 0.84375-0.68359 1.5273-1.5273 1.5273l-20.617 0.003906c-0.84375 0-1.5273-0.68359-1.5273-1.5273s0.68359-1.5273 1.5273-1.5273h20.617c0.84375-0.003906 1.5273 0.67969 1.5273 1.5234zm-7.7578 6.0156c0 0.84375-0.68359 1.5273-1.5273 1.5273h-12.859c-0.84375 0-1.5273-0.68359-1.5273-1.5273s0.68359-1.5273 1.5273-1.5273h12.859c0.84375-0.003906 1.5273 0.67969 1.5273 1.5273z"/>
</svg>