<svg xmlns="http://www.w3.org/2000/svg" version="1.1" viewBox="-5.0 -10.0 110.0 135.0">
 <path d="m91.723 28.898v-0.09375-0.039063c-0.019531-0.17188-0.070312-0.34766-0.15234-0.5-0.019531-0.039063-0.039062-0.070313-0.0625-0.10156-0.019531-0.039062-0.050781-0.070312-0.082031-0.10156s-0.0625-0.070312-0.09375-0.10156l-12.512-12.512s-0.0625-0.0625-0.10156-0.09375c0 0-0.011719 0-0.019531-0.011719-0.03125-0.019531-0.0625-0.039062-0.09375-0.0625 0 0-0.011719 0-0.019531-0.011719-0.03125-0.019531-0.0625-0.039062-0.09375-0.050781h-0.011719c-0.03125-0.019531-0.070313-0.03125-0.10156-0.050781h-0.011718c-0.039063-0.011719-0.070313-0.03125-0.11328-0.039063h-0.011718c-0.039063-0.011718-0.070313-0.019531-0.11328-0.03125h-0.03125c-0.03125 0-0.0625-0.011718-0.09375-0.011718h-0.13281-31.195l1.082-2.4492c0.22266-0.5 0.11328-1.0938-0.27734-1.4805l-3.6328-3.6328c-0.38672-0.38672-0.98047-0.5-1.4805-0.27734l-4.1211 1.8164c-0.84766-0.42969-1.7227-0.79688-2.6328-1.0938l-1.6211-4.2031c-0.19531-0.51172-0.69531-0.85547-1.2461-0.85547h-5.1445c-0.55078 0-1.0508 0.33594-1.2461 0.85547l-1.6211 4.2031c-0.90625 0.29688-1.7852 0.65234-2.6328 1.0938l-4.1211-1.8164c-0.5-0.22266-1.0938-0.11328-1.4805 0.27734l-3.6328 3.6328c-0.38672 0.38672-0.5 0.98047-0.27734 1.4805l1.8164 4.1211c-0.42969 0.84766-0.79688 1.7227-1.0938 2.6328l-4.2031 1.6211c-0.51172 0.20312-0.85547 0.69531-0.85547 1.2461v5.1445c0 0.55078 0.33594 1.0508 0.85547 1.2461l4.2031 1.6211c0.29688 0.90625 0.65234 1.7852 1.0938 2.6328l-1.8164 4.1211c-0.22266 0.5-0.11328 1.0938 0.27734 1.4805l3.6328 3.6328c0.38672 0.38672 0.98047 0.5 1.4805 0.27734l4.1211-1.8164c0.84766 0.42969 1.7227 0.79688 2.6328 1.0938l0.87891 2.2539v51.898c0 0.73438 0.60156 1.3359 1.3359 1.3359h63.438c0.73438 0 1.3359-0.60156 1.3359-1.3359l0.023438-66.945zm-12.52-9.2969 7.9609 7.9609h-7.9609zm-56.387 18.297c-0.36719-0.20313-0.80469-0.22266-1.1953-0.0625l-3.8789 1.7148-2.3359-2.3359 1.7148-3.8789c0.17188-0.38672 0.15234-0.82813-0.0625-1.1953-0.58203-1.0312-1.0391-2.1445-1.3555-3.2852-0.11328-0.40625-0.40625-0.73438-0.80469-0.88672l-3.9609-1.5312v-3.3047l3.9609-1.5312c0.38672-0.15234 0.69531-0.48047 0.80469-0.88672 0.31641-1.1445 0.77734-2.2539 1.3555-3.2852 0.20312-0.36719 0.22266-0.80469 0.0625-1.1953l-1.7148-3.8789 2.3359-2.3359 3.8789 1.7148c0.38672 0.17188 0.82812 0.15234 1.1953-0.0625 1.0312-0.58203 2.1445-1.0391 3.2852-1.3555 0.40625-0.11328 0.73438-0.40625 0.88672-0.80469l1.5312-3.9609h3.3047l1.5312 3.9609c0.15234 0.38672 0.48047 0.69531 0.88672 0.80469 1.1445 0.31641 2.2539 0.77734 3.2852 1.3555 0.36719 0.20312 0.80469 0.22266 1.1953 0.0625l3.8789-1.7148 2.3359 2.3359-1.5391 3.5v0.019531l-0.16406 0.36719c-0.17188 0.38672-0.15234 0.82812 0.0625 1.1953 0.58203 1.0312 1.0391 2.1445 1.3555 3.2852 0.11328 0.40625 0.40625 0.73438 0.80469 0.88672l3.9609 1.5312v3.3047l-3.9609 1.5312c-0.38672 0.15234-0.69531 0.48047-0.80469 0.88672-0.31641 1.1445-0.77734 2.2539-1.3555 3.2852-0.20312 0.36719-0.22266 0.80469-0.0625 1.1953l1.7148 3.8789-2.3359 2.3359-3.8789-1.7148c-0.38672-0.17188-0.82812-0.15234-1.1953 0.0625-1.0312 0.58203-2.1445 1.0391-3.2852 1.3555-0.40625 0.11328-0.73438 0.40625-0.88672 0.80469l-1.5312 3.9609h-3.3047l-1.5312-3.9609c-0.15234-0.38672-0.48047-0.69531-0.88672-0.80469-1.1445-0.31641-2.2539-0.77734-3.2852-1.3555zm5.4609 56.551v-47.766h4.4688c0.55078 0 1.0508-0.33594 1.2461-0.85547l1.6211-4.2031c0.90625-0.29688 1.7852-0.65234 2.6328-1.0938l4.1211 1.8164c0.5 0.22266 1.0938 0.11328 1.4805-0.27734l3.6328-3.6328c0.38672-0.38672 0.5-0.98047 0.27734-1.4805l-1.8164-4.1211c0.42969-0.84766 0.79688-1.7227 1.0938-2.6328l4.2031-1.6211c0.51172-0.20312 0.85547-0.69531 0.85547-1.2461v-5.1445c0-0.55078-0.33594-1.0508-0.85547-1.2461l-4.2031-1.6211c-0.17188-0.55078-0.38672-1.0938-0.62109-1.6211h30.121v11.184c0 0.73438 0.60156 1.3359 1.3359 1.3359h11.184v64.223l-60.77 0.003907zm9.0625-62.5c3.9492-3.9492 3.9492-10.379 0-14.336-1.918-1.918-4.4609-2.9688-7.1641-2.9688s-5.2539 1.0508-7.1641 2.9688c-1.918 1.918-2.9688 4.4609-2.9688 7.1641s1.0508 5.2539 2.9688 7.1641c1.9805 1.9805 4.5703 2.9609 7.1641 2.9609s5.1953-0.98828 7.1641-2.9609zm-14.633-7.1641c0-1.9883 0.77734-3.8672 2.1836-5.2773 1.4062-1.4062 3.2852-2.1836 5.2773-2.1836 1.9883 0 3.8672 0.77734 5.2773 2.1836 2.9062 2.9062 2.9062 7.6445 0 10.551s-7.6445 2.9062-10.551 0c-1.4062-1.4062-2.1836-3.2852-2.1836-5.2773zm20.406 25.816h-8.4297c-0.73438 0-1.3359 0.60156-1.3359 1.3359v8.4297c0 0.73437 0.60156 1.3359 1.3359 1.3359h8.4297c0.73438 0 1.3359-0.60156 1.3359-1.3359v-8.4297c0-0.73438-0.60156-1.3359-1.3359-1.3359zm-1.3359 8.4297h-5.7539v-5.7539h5.7539zm1.3359 5.6211h-8.4297c-0.73438 0-1.3359 0.60156-1.3359 1.3359v8.4297c0 0.73438 0.60156 1.3359 1.3359 1.3359h8.4297c0.73438 0 1.3359-0.60156 1.3359-1.3359v-8.4297c0-0.73438-0.60156-1.3359-1.3359-1.3359zm-1.3359 8.4297h-5.7539v-5.7539h5.7539zm1.3359 5.6211h-8.4297c-0.73438 0-1.3359 0.60156-1.3359 1.3359v8.4297c0 0.73438 0.60156 1.3359 1.3359 1.3359h8.4297c0.73438 0 1.3359-0.60156 1.3359-1.3359v-8.4297c0-0.73437-0.60156-1.3359-1.3359-1.3359zm-1.3359 8.4297h-5.7539v-5.7539h5.7539zm18.938-35.305c0.51953 0.51953 0.51953 1.3672 0 1.8867l-6.7852 6.7852c-0.25391 0.25391-0.59375 0.38672-0.94922 0.38672s-0.69531-0.14453-0.94922-0.38672l-3.6445-3.6445c-0.51953-0.51953-0.51953-1.3672 0-1.8867s1.3672-0.51953 1.8867 0l2.7031 2.7031 5.8477-5.8477c0.51953-0.51953 1.3672-0.51953 1.8867 0zm0 14.039c0.51953 0.51953 0.51953 1.3672 0 1.8867l-6.7852 6.7852c-0.25391 0.25391-0.59375 0.38672-0.94922 0.38672s-0.69531-0.14453-0.94922-0.38672l-3.6445-3.6445c-0.51953-0.51953-0.51953-1.3672 0-1.8867 0.51953-0.51953 1.3672-0.51953 1.8867 0l2.7031 2.7031 5.8477-5.8477c0.51953-0.51953 1.3672-0.51953 1.8867 0zm0 14.039c0.51953 0.51953 0.51953 1.3672 0 1.8867l-6.7852 6.7852c-0.26563 0.26562-0.60156 0.38672-0.94922 0.38672-0.34766 0-0.68359-0.13281-0.94922-0.38672l-3.6445-3.6445c-0.51953-0.51953-0.51953-1.3672 0-1.8867s1.3672-0.51953 1.8867 0l2.7031 2.7031 5.8477-5.8477c0.51953-0.51953 1.3672-0.51953 1.8867 0zm23.254-23.754c0 0.73438-0.60156 1.3359-1.3359 1.3359h-13.645c-0.73438 0-1.3359-0.60156-1.3359-1.3359s0.60156-1.3359 1.3359-1.3359h13.645c0.73438 0 1.3359 0.60156 1.3359 1.3359zm0 14.039c0 0.73438-0.60156 1.3359-1.3359 1.3359h-13.645c-0.73438 0-1.3359-0.60156-1.3359-1.3359s0.60156-1.3359 1.3359-1.3359h13.645c0.73438 0 1.3359 0.60156 1.3359 1.3359zm0 14.039c0 0.73438-0.60156 1.3359-1.3359 1.3359h-13.645c-0.73438 0-1.3359-0.60156-1.3359-1.3359s0.60156-1.3359 1.3359-1.3359h13.645c0.73438 0 1.3359 0.60156 1.3359 1.3359z"/>
</svg>