<svg xmlns="http://www.w3.org/2000/svg" xmlns:xlink="http://www.w3.org/1999/xlink" version="1.1" x="0px" y="0px" viewBox="0 0 66 82.5" style="enable-background:new 0 0 66 66;" xml:space="preserve"><path d="M35.99,57.38H20.43c-0.71,0-1.29-0.59-1.29-1.31c0-0.53,0.34-1.02,0.84-1.21l2.53-0.94c1.17-0.44,1.93-1.54,1.93-2.79v-2.66  h8.16v2.66c0,1.25,0.76,2.35,1.94,2.8l0.13,0.05c0.43,0.15,0.91-0.07,1.07-0.51c0.15-0.44-0.07-0.91-0.51-1.07l-0.12-0.04  c-0.51-0.2-0.85-0.68-0.85-1.23v-2.66h0.68c0.46,0,0.84-0.37,0.84-0.84c0-0.46-0.37-0.84-0.84-0.84h-1.52h-9.84H7.43  c-2.31,0-4.18-1.87-4.18-4.17v-3.27h31.71c0.46,0,0.84-0.37,0.84-0.84c0-0.46-0.37-0.84-0.84-0.84H3.24V12.81  c0-2.31,1.88-4.18,4.18-4.18H49.6c2.31,0,4.18,1.88,4.18,4.18v1.56c0,0.46,0.37,0.84,0.84,0.84c0.46,0,0.84-0.37,0.84-0.84v-1.56  c0-3.23-2.63-5.86-5.86-5.86H7.43c-3.23,0-5.86,2.63-5.86,5.86v25.7v4.11c0,3.22,2.63,5.85,5.86,5.85h15.33v2.66  c0,0.55-0.33,1.03-0.84,1.22l-2.53,0.94c-1.15,0.44-1.93,1.55-1.93,2.78c0,1.64,1.33,2.98,2.97,2.98h15.57  c0.46,0,0.84-0.37,0.84-0.84C36.83,57.75,36.45,57.38,35.99,57.38z"/><path d="M10.05,14.36h36.91c0.36,0,0.69,0.18,0.89,0.48c0.26,0.38,0.78,0.48,1.16,0.22c0.38-0.26,0.48-0.78,0.22-1.16  c-0.51-0.76-1.37-1.21-2.28-1.21H10.05c-1.52,0-2.75,1.23-2.75,2.75v2.99c0,1.52,1.23,2.75,2.75,2.75h25.09  c0.46,0,0.84-0.37,0.84-0.84c0-0.46-0.37-0.84-0.84-0.84H10.05c-0.59,0-1.08-0.48-1.08-1.08v-2.99  C8.98,14.84,9.46,14.36,10.05,14.36z"/><path d="M59.75,17.35H42.62c-2.58,0-4.68,2.1-4.68,4.68v32.34c0,2.58,2.1,4.68,4.68,4.68h17.13c2.58,0,4.68-2.1,4.68-4.68V22.03  C64.43,19.45,62.33,17.35,59.75,17.35z M56.08,19.02l-0.44,1.58c-0.05,0.19-0.23,0.32-0.43,0.32h-8.04c-0.2,0-0.38-0.13-0.43-0.32  l-0.44-1.58H56.08z M62.76,54.37c0,1.66-1.35,3.01-3.01,3.01H42.62c-1.66,0-3.01-1.35-3.01-3.01V22.03c0-1.66,1.35-3.01,3.01-3.01  h1.94l0.57,2.03c0.25,0.91,1.09,1.55,2.04,1.55h8.04c0.95,0,1.79-0.64,2.04-1.55l0.57-2.03h1.94c1.66,0,3.01,1.35,3.01,3.01V54.37z"/><path d="M53.08,53.51h-3.79c-0.46,0-0.84,0.37-0.84,0.84c0,0.46,0.37,0.84,0.84,0.84h3.79c0.46,0,0.84-0.37,0.84-0.84  C53.92,53.89,53.54,53.51,53.08,53.51z"/><path d="M9.1,24.78c-0.99,0-1.79,0.8-1.79,1.79v6.23c0,0.99,0.8,1.79,1.79,1.79h6.23c0.99,0,1.79-0.8,1.79-1.79v-6.23  c0-0.99-0.8-1.79-1.79-1.79H9.1z M15.45,26.58v6.23c0,0.07-0.05,0.12-0.12,0.12H9.1c-0.07,0-0.12-0.05-0.12-0.12v-6.23  c0-0.07,0.05-0.12,0.12-0.12h6.23C15.4,26.46,15.45,26.51,15.45,26.58z"/><path d="M22.97,24.78c-0.99,0-1.79,0.8-1.79,1.79v6.23c0,0.99,0.8,1.79,1.79,1.79h6.23c0.99,0,1.79-0.8,1.79-1.79v-6.23  c0-0.99-0.8-1.79-1.79-1.79H22.97z M29.32,26.58v6.23c0,0.07-0.05,0.12-0.12,0.12h-6.23c-0.07,0-0.12-0.05-0.12-0.12v-6.23  c0-0.07,0.05-0.12,0.12-0.12h6.23C29.27,26.46,29.32,26.51,29.32,26.58z"/><path d="M49.96,42.27v-3.71c0-0.99-0.8-1.79-1.79-1.79h-3.71c-0.99,0-1.79,0.8-1.79,1.79v3.71c0,0.99,0.8,1.79,1.79,1.79h3.71  C49.15,44.07,49.96,43.26,49.96,42.27z M48.28,42.27c0,0.07-0.05,0.12-0.12,0.12h-3.71c-0.07,0-0.12-0.05-0.12-0.12v-3.71  c0-0.07,0.05-0.12,0.12-0.12h3.71c0.07,0,0.12,0.05,0.12,0.12V42.27z"/><path d="M57.92,36.77h-3.71c-0.99,0-1.79,0.8-1.79,1.79v3.71c0,0.99,0.8,1.79,1.79,1.79h3.71c0.99,0,1.79-0.8,1.79-1.79v-3.71  C59.71,37.58,58.9,36.77,57.92,36.77z M58.04,42.27c0,0.07-0.05,0.12-0.12,0.12h-3.71c-0.07,0-0.12-0.05-0.12-0.12v-3.71  c0-0.07,0.05-0.12,0.12-0.12h3.71c0.07,0,0.12,0.05,0.12,0.12V42.27z"/><path d="M58.87,26.78H43.5c-0.46,0-0.84,0.37-0.84,0.84v4.66c0,0.46,0.37,0.84,0.84,0.84h15.37c0.46,0,0.84-0.37,0.84-0.84v-4.66  C59.71,27.15,59.33,26.78,58.87,26.78z M58.04,31.44h-13.7v-2.98h13.7V31.44z"/></svg>