<svg xmlns="http://www.w3.org/2000/svg" version="1.1" viewBox="-5.0 -10.0 110.0 135.0">
 <path d="m89.23 4.0586h-78.461c-3.5586 0-6.457 2.8945-6.457 6.457v78.973c0 3.5586 2.8945 6.457 6.457 6.457h78.457c3.5586 0 6.457-2.8945 6.457-6.457v-78.973c0.003906-3.5625-2.8945-6.457-6.4531-6.457zm-78.461 2.7031h78.457c2.0703 0 3.7539 1.6836 3.7539 3.7539v6.5156h-85.965v-6.5156c0-2.0703 1.6836-3.7539 3.7539-3.7539zm78.461 86.477h-78.461c-2.0703 0-3.7539-1.6836-3.7539-3.7539v-69.75h85.965v69.754c0.003906 2.0664-1.6797 3.75-3.75 3.75zm-37.312-81.344c0-0.74609 0.60547-1.3516 1.3516-1.3516h31.516c0.74609 0 1.3516 0.60547 1.3516 1.3516 0 0.74609-0.60547 1.3516-1.3516 1.3516h-31.516c-0.74609 0-1.3516-0.60547-1.3516-1.3516zm-38.617 0c0-0.74609 0.60547-1.3516 1.3516-1.3516h2.7852c0.74609 0 1.3516 0.60547 1.3516 1.3516 0 0.74609-0.60547 1.3516-1.3516 1.3516h-2.7852c-0.74609 0-1.3516-0.60547-1.3516-1.3516zm9.3711 0c0-0.74609 0.60547-1.3516 1.3516-1.3516h2.7852c0.74609 0 1.3516 0.60547 1.3516 1.3516 0 0.74609-0.60547 1.3516-1.3516 1.3516h-2.7852c-0.74609 0-1.3516-0.60547-1.3516-1.3516zm9.3672 0c0-0.74609 0.60547-1.3516 1.3516-1.3516h2.7852c0.74609 0 1.3516 0.60547 1.3516 1.3516 0 0.74609-0.60547 1.3516-1.3516 1.3516h-2.7852c-0.74609 0-1.3516-0.60547-1.3516-1.3516zm39.375 65.273v-9.1953c0-2.0898-1.6992-3.793-3.793-3.793h-16.27v-1.9844h1.0039c1.3711 0 2.4883-1.1172 2.4883-2.4883v-0.74609c0-1.0195 0.5625-1.8594 1.5039-2.25 0.94141-0.39063 1.9336-0.19141 2.6562 0.52734l0.53125 0.53125c0.96875 0.96875 2.5469 0.96875 3.5195 0l3.3281-3.3281c0.46875-0.46875 0.72656-1.0938 0.72656-1.7578 0-0.66406-0.25781-1.2891-0.72656-1.7578l-0.53125-0.53125c-0.71875-0.71875-0.91797-1.7148-0.52734-2.6562 0.39062-0.94141 1.2305-1.5039 2.25-1.5039h0.75c1.3711 0 2.4883-1.1172 2.4883-2.4883v-4.7109c0-1.3711-1.1172-2.4883-2.4883-2.4883h-0.75c-1.0195 0-1.8594-0.5625-2.25-1.5039-0.39062-0.94141-0.19141-1.9336 0.52734-2.6523l0.53125-0.53125c0.46875-0.46875 0.72656-1.0938 0.72656-1.7578 0-0.66406-0.25781-1.2891-0.72656-1.7578l-3.3281-3.3281c-0.46875-0.46875-1.0938-0.72656-1.7578-0.72656s-1.2891 0.25781-1.7578 0.72656l-0.53125 0.53125c-0.71875 0.71875-1.7148 0.91797-2.6562 0.52734-0.94141-0.39062-1.5039-1.2305-1.5039-2.25v-0.75c0-1.3711-1.1172-2.4883-2.4883-2.4883h-4.7109c-1.3711 0-2.4883 1.1172-2.4883 2.4883v0.75c0 1.0195-0.5625 1.8594-1.5039 2.25s-1.9336 0.19141-2.6562-0.52734l-0.53125-0.53125c-0.46875-0.46875-1.0938-0.72656-1.7578-0.72656-0.66406 0-1.2891 0.25781-1.7578 0.72656l-3.3281 3.3281c-0.96875 0.96875-0.96875 2.5469 0 3.5156l0.53125 0.53125c0.71875 0.71875 0.91797 1.7148 0.52734 2.6523-0.39062 0.94141-1.2305 1.5039-2.25 1.5039h-0.75c-1.3711 0-2.4883 1.1172-2.4883 2.4883v4.7109c0 1.3711 1.1172 2.4883 2.4883 2.4883h0.75c1.0195 0 1.8594 0.5625 2.25 1.5039 0.39062 0.94141 0.19141 1.9336-0.52734 2.6562l-0.53125 0.53125c-0.46875 0.46875-0.72656 1.0938-0.72656 1.7578 0 0.66406 0.25781 1.2891 0.72656 1.7578l3.3281 3.3281c0.46875 0.46875 1.0938 0.72656 1.7578 0.72656 0.66406 0 1.2891-0.25781 1.7578-0.72656l0.53125-0.53125c0.71875-0.71875 1.7148-0.91797 2.6562-0.52734 0.94141 0.39062 1.5039 1.2305 1.5039 2.25v0.75c0 1.3711 1.1172 2.4883 2.4883 2.4883h1.0039v6.4219l-16.277-0.003906c-2.0898 0-3.793 1.6992-3.793 3.793v9.1953c-2.3555 0.60156-4.1055 2.7422-4.1055 5.2852 0 3.0078 2.4453 5.457 5.457 5.457 3.0078 0 5.457-2.4453 5.457-5.457 0-2.543-1.7461-4.6836-4.1055-5.2852v-9.1953c0-0.60156 0.48828-1.0898 1.0898-1.0898h16.273v2.5977c-2.3555 0.60156-4.1055 2.7422-4.1055 5.2852 0 3.0078 2.4453 5.457 5.457 5.457 3.0078 0 5.457-2.4453 5.457-5.457 0-2.543-1.7461-4.6836-4.1055-5.2852v-7.0352h16.273c0.60156 0 1.0898 0.48828 1.0898 1.0898v9.1953c-2.3555 0.60156-4.1055 2.7422-4.1055 5.2852 0 3.0078 2.4492 5.457 5.457 5.457 3.0078 0 5.457-2.4453 5.457-5.457-0.003907-2.543-1.7539-4.6836-4.1094-5.2852zm-26.727-22.957c-1.957-0.8125-4.1016-0.38281-5.6016 1.1133l-0.37891 0.37891-3.0273-3.0273 0.37891-0.37891c1.4961-1.4961 1.9258-3.6445 1.1133-5.6016-0.80859-1.957-2.6289-3.1719-4.7461-3.1719h-0.53516v-4.2773h0.53516c2.1172 0 3.9375-1.2148 4.7461-3.1719s0.38281-4.1016-1.1133-5.6016l-0.37891-0.37891 3.0273-3.0273 0.37891 0.37891c1.4961 1.4961 3.6445 1.9258 5.6016 1.1133 1.957-0.80859 3.1719-2.6289 3.1719-4.7461v-0.53516h4.2773v0.53516c0 2.1172 1.2148 3.9375 3.1719 4.7461 1.957 0.80859 4.1016 0.38281 5.6016-1.1133l0.37891-0.37891 3.0273 3.0273-0.37891 0.37891c-1.4961 1.4961-1.9258 3.6445-1.1133 5.6016 0.80859 1.957 2.6289 3.1719 4.7461 3.1719h0.53516v4.2773h-0.53516c-2.1172 0-3.9375 1.2148-4.7461 3.1719-0.80859 1.957-0.38281 4.1016 1.1133 5.6016l0.37891 0.37891-3.0273 3.0273-0.37891-0.37891c-1.4961-1.4961-3.6445-1.9258-5.6016-1.1133-1.957 0.80859-3.1719 2.6289-3.1719 4.7461v0.53516h-4.2773v-0.53125c0-2.1172-1.2148-3.9375-3.1719-4.75zm-11.996 32.68c0 1.5195-1.2344 2.7539-2.7539 2.7539s-2.7539-1.2344-2.7539-2.7539 1.2344-2.7539 2.7539-2.7539 2.7539 1.2344 2.7539 2.7539zm20.062-7.6836c0 1.5195-1.2344 2.7539-2.7539 2.7539s-2.7539-1.2344-2.7539-2.7539 1.2344-2.7539 2.7539-2.7539 2.7539 1.2344 2.7539 2.7539zm17.309 6c-1.5195 0-2.7539-1.2344-2.7539-2.7539s1.2344-2.7539 2.7539-2.7539 2.7539 1.2344 2.7539 2.7539-1.2344 2.7539-2.7539 2.7539zm-20.062-32.176c3.1094 0 6.0312-1.2109 8.2305-3.4102 2.1992-2.1992 3.4102-5.1211 3.4102-8.2305s-1.2109-6.0312-3.4102-8.2305c-2.1992-2.1992-5.1211-3.4102-8.2305-3.4102s-6.0312 1.2109-8.2305 3.4102c-2.1992 2.1992-3.4102 5.1211-3.4102 8.2305s1.2109 6.0312 3.4102 8.2305c2.1992 2.1992 5.1211 3.4102 8.2305 3.4102zm-8.9375-11.641c0-2.3867 0.92969-4.6328 2.6172-6.3203s3.9336-2.6172 6.3203-2.6172 4.6328 0.92969 6.3203 2.6172 2.6172 3.9336 2.6172 6.3203-0.92969 4.6328-2.6172 6.3203-3.9336 2.6172-6.3203 2.6172-4.6328-0.92969-6.3203-2.6172c-1.6875-1.6914-2.6172-3.9336-2.6172-6.3203zm6.0234-1.7578-2.1328 1.7578 2.1328 1.7578c0.57812 0.47266 0.65625 1.3242 0.18359 1.9023-0.26562 0.32422-0.65234 0.49219-1.043 0.49219-0.30078 0-0.60547-0.10156-0.85937-0.30859l-3.3984-2.8008c-0.3125-0.25781-0.49219-0.64062-0.49219-1.043s0.17969-0.78516 0.49219-1.043l3.3984-2.8008c0.57422-0.47266 1.4258-0.39062 1.9023 0.18359 0.47266 0.57812 0.39453 1.4258-0.18359 1.9023zm2.168 5.8906c-0.11719 0-0.23438-0.015626-0.35156-0.046876-0.71875-0.19141-1.1484-0.93359-0.95703-1.6562l1.4922-5.5703c0.19141-0.71875 0.93359-1.1484 1.6562-0.95703 0.71875 0.19141 1.1484 0.93359 0.95703 1.6562l-1.4922 5.5703c-0.16016 0.60547-0.70703 1.0039-1.3047 1.0039zm3.6602-2.3789 2.1328-1.7578-2.1328-1.7578c-0.57812-0.47266-0.65625-1.3242-0.18359-1.9023 0.47266-0.57812 1.3281-0.65625 1.9023-0.18359l3.3984 2.8008c0.3125 0.25781 0.49219 0.64062 0.49219 1.043 0 0.40234-0.17969 0.78516-0.49219 1.043l-3.3984 2.8008c-0.25391 0.20703-0.55469 0.30859-0.85937 0.30859-0.39063 0-0.77734-0.16797-1.043-0.49219-0.47266-0.57812-0.39453-1.4258 0.18359-1.9023z"/>
</svg>